<?xml version="1.0" standalone="no"?>
<!DOCTYPE svg PUBLIC "-//W3C//DTD SVG 20010904//EN"
 "http://www.w3.org/TR/2001/REC-SVG-20010904/DTD/svg10.dtd">
<svg version="1.0" xmlns="http://www.w3.org/2000/svg"
 width="700.000000pt" height="700.000000pt" viewBox="0 0 700.000000 700.000000"
 preserveAspectRatio="xMidYMid meet">
<metadata>
Created by potrace 1.14, written by Peter Selinger 2001-2017
</metadata>
<g transform="translate(0.000000,700.000000) scale(0.100000,-0.100000)"
fill="#000000" stroke="none">
<path d="M3495 6985 c-271 -60 -487 -275 -530 -527 -3 -18 -8 -41 -11 -52 -4
-10 -6 -69 -6 -130 1 -417 286 -714 692 -719 228 -3 367 51 516 198 76 76 97
105 137 185 61 126 81 227 74 369 -9 178 -58 315 -156 441 -83 108 -213 192
-347 226 -83 21 -294 26 -369 9z"/>
<path d="M537 6474 c-1 -1 -51 -4 -112 -8 -119 -7 -174 -12 -220 -20 -16 -3
-52 -8 -80 -12 -27 -3 -66 -9 -85 -13 l-35 -7 -3 -492 c-2 -390 0 -492 10
-492 7 0 36 7 63 16 62 19 255 52 355 62 181 17 520 1 670 -32 14 -3 50 -11
80 -17 125 -25 324 -97 494 -177 l99 -47 -99 -120 c-207 -251 -324 -405 -476
-630 -165 -244 -365 -585 -354 -604 3 -5 27 -12 53 -16 83 -12 216 -68 288
-120 51 -37 54 -38 65 -13 5 13 14 30 19 38 6 8 51 85 102 170 118 198 239
378 396 588 69 92 129 169 132 172 4 3 22 25 41 50 19 25 37 47 40 50 3 3 40
47 82 98 l77 92 68 -58 c161 -140 350 -356 471 -541 122 -187 251 -472 312
-688 31 -109 64 -283 75 -390 3 -32 8 -76 10 -98 14 -128 2 -444 -21 -584 -31
-184 -62 -308 -115 -461 -42 -121 -46 -129 -126 -287 -246 -490 -643 -888
-1123 -1125 -333 -164 -636 -233 -1030 -233 -248 0 -358 12 -582 64 l-78 18 0
-303 0 -304 1161 0 1161 0 157 104 c215 143 349 253 536 441 231 230 396 445
556 721 225 390 390 870 435 1264 3 25 7 56 9 70 19 107 27 562 13 720 -13
145 -21 204 -54 390 -3 14 -19 81 -35 149 -107 436 -326 894 -607 1266 -112
149 -179 223 -353 397 -144 143 -157 158 -140 170 10 7 38 30 63 51 24 20 53
43 62 50 17 13 16 17 -14 78 -55 107 -77 184 -96 334 -3 28 -7 51 -8 52 -2 3
-242 -191 -310 -251 -35 -31 -69 -56 -74 -56 -6 0 -47 22 -91 50 -164 102
-397 213 -596 285 -187 68 -476 139 -650 160 -27 3 -63 8 -80 10 -90 12 -498
28 -508 19z"/>
<path d="M4469 6273 c-11 -169 -35 -268 -96 -385 -39 -75 -40 -69 25 -138 55
-57 203 -258 266 -360 32 -52 67 -107 77 -122 11 -15 19 -29 19 -32 0 -3 13
-27 29 -54 72 -123 206 -402 298 -622 200 -480 378 -1033 553 -1715 45 -179
114 -469 126 -535 3 -14 14 -61 24 -105 18 -76 57 -262 67 -315 2 -14 11 -59
20 -100 19 -95 18 -89 37 -195 26 -137 18 -128 79 -105 82 31 176 47 276 48
51 0 95 2 97 5 3 2 -26 162 -50 282 -3 11 -12 58 -21 105 -10 47 -18 90 -19
95 -2 6 -6 28 -10 50 -9 45 -95 432 -127 570 -11 50 -22 97 -24 105 -2 8 -28
114 -60 235 -31 121 -58 227 -60 235 -82 342 -359 1175 -490 1475 -7 17 -32
75 -55 130 -66 155 -230 487 -310 625 -156 270 -325 500 -488 666 -143 145
-182 179 -183 157z"/>
<path d="M550 3774 c-73 -15 -100 -25 -182 -65 -72 -35 -75 -37 -167 -129
-138 -136 -195 -285 -195 -505 0 -71 3 -146 7 -165 60 -299 292 -523 577 -557
115 -15 256 -5 350 23 210 63 387 244 454 466 32 105 40 245 21 346 -4 20 -9
48 -11 61 -9 43 -47 146 -72 191 -90 165 -238 280 -417 325 -91 24 -278 28
-365 9z"/>
<path d="M6218 1445 c-2 -2 -25 -5 -53 -9 -90 -11 -164 -36 -265 -91 -39 -22
-128 -101 -171 -152 -75 -91 -130 -219 -146 -341 -19 -150 -4 -302 42 -415 89
-222 258 -366 497 -423 55 -14 270 -12 336 3 127 29 254 100 333 187 78 86 90
103 134 191 55 112 78 227 71 353 -23 419 -285 683 -689 696 -48 1 -88 2 -89
1z"/>
</g>
</svg>
